<svg id="Layer_1" enable-background="new 0 0 512 512" height="512" viewBox="0 0 512 512" width="512" xmlns="http://www.w3.org/2000/svg"><g><path d="m451.39 476.52v30.55c0 2.72-2.21 4.93-4.93 4.93h-380.92c-2.72 0-4.93-2.21-4.93-4.93v-30.55c0-56.47 75.1-79.32 118.54-87.81h153.71c43.44 8.49 118.53 31.34 118.53 87.81z" fill="#ff6247"/><path d="m451.39 476.52v30.55c0 2.72-2.21 4.93-4.93 4.93h-380.92c-2.72 0-4.93-2.21-4.93-4.93v-16.61h342.17c10.21 0 18.48-8.27 18.48-18.48 0-48.46-55.29-72.16-98.43-83.27h10.03c43.44 8.49 118.53 31.34 118.53 87.81z" fill="#ed4042"/><g fill="#ef9e89"><path d="m142.143 235.718c-4.722 4.72-11.247 7.639-18.453 7.639-14.413 0-26.096-11.677-26.096-26.082 0-14.404 11.684-26.082 26.096-26.082 6.419 0 12.297 2.317 16.843 6.159z"/><path d="m369.807 235.665c4.722 4.72 11.247 7.639 18.453 7.639 14.413 0 26.096-11.677 26.096-26.082 0-14.404-11.684-26.082-26.096-26.082-6.419 0-12.297 2.317-16.843 6.159z"/></g><path d="m332.86 388.71-.01.02c-.05.9-.12 1.79-.21 2.68-3.64 39.1-36.56 69.7-76.64 69.7-40.99 0-74.5-32.02-76.85-72.4 17.68-3.46 30.12-4.54 30.12-4.54h93.46s12.44 1.08 30.13 4.54z" fill="#eef0f5"/><path d="m332.86 388.71-.01.02c-.05.9-.12 1.79-.21 2.68-10.69-3.13-20.97-5.49-29.91-7.24 0 0 12.44 1.08 30.13 4.54z" fill="#dae1ea"/><g><path d="m302.73 384.17c0 25.8-20.92 46.71-46.73 46.71s-46.73-20.91-46.73-46.71c9.11 0 14.21-9.78 16.52-22.23 1.05-5.68 1.52-11.93 1.52-18.06l28.69-20.44 30.26 19.52c0 5.98.3 12.15 1.1 17.84 1.8 12.93 6.16 23.37 15.37 23.37z" fill="#fdd9b4"/><path d="m287.36 360.8c-9.3 9.58-20.18 14.73-31.35 14.69-10.72.02-21.17-4.7-30.22-13.55 1.05-5.68 1.52-11.93 1.52-18.06l28.69-20.44 30.26 19.52c0 5.98.3 12.15 1.1 17.84z" fill="#f9c29d"/></g><path d="m376.42 144.55v78.97c0 10.25-.78 22.99-3.46 36.45-7.17 36.07-27.98 77.21-83.96 88.73-9.87 2.04-20.83 3.15-33 3.15-81.22 0-108.52-49.45-116.96-91.88-2.68-13.45-3.46-26.2-3.46-36.45v-78.97z" fill="#fdd9b4"/><path d="m376.42 144.55v78.97c0 37.71-10.57 109.37-87.42 125.18 54.2-24.6 60.42-84.02 60.42-117.18 0-6.14-4.55-11.32-10.64-12.1-19.21-2.44-36.83-11.4-50.06-25.05-3.16-3.27-7.92-4.49-12.26-3.13-8.06 2.53-16.52 3.82-25.21 3.82-8.25 0-16.31-1.17-24.02-3.46-4.36-1.3-9.08-.03-12.22 3.25-14.57 15.21-34.92 24.2-56.96 24.2-7.81 0-15.35-1.14-22.47-3.27v-71.23z" fill="#f9c29d"/><path d="m372.96 259.97c-7.17 36.07-27.98 77.21-83.96 88.73-9.87 2.04-20.83 3.15-33 3.15-81.22 0-108.52-49.45-116.96-91.88 10.6-3.86 71.53-24.77 116.95-24.77 30.49 0 67.99 9.43 92.55 16.79 12.02 3.61 20.94 6.72 24.42 7.98z" fill="#eef0f5"/><path d="m372.96 259.97c-7.17 36.07-27.98 77.21-83.96 88.73 44.28-20.1 56.54-63.44 59.54-96.71 12.02 3.61 20.94 6.72 24.42 7.98z" fill="#dae1ea"/><path d="m413.84 135.72c0 35.55-28.84 64.38-64.42 64.38-26.33 0-48.97-15.79-58.96-38.42-10.84 8.39-24.44 13.38-39.21 13.38-14.47 0-27.82-4.79-38.55-12.88-8.72 21.61-29.9 36.87-54.65 36.87-31.19 0-56.72-24.24-58.75-54.9-.1-1.31-.14-2.64-.14-3.97 0-23.12 13.34-43.13 32.75-52.76l-.03-.02c-5.46-6.12-8.78-14.19-8.78-23.04 0-19.12 15.51-34.61 34.64-34.61 4.86 0 9.49 1 13.69 2.8 5.08-18.75 22.23-32.55 42.6-32.55 15.56 0 29.23 8.04 37.09 20.18 4.4-9.57 13.04-16.79 23.51-19.25 2.56-.61 5.24-.93 7.99-.93 13.44 0 25.09 7.65 30.83 18.83 7.2-5.08 15.98-8.07 25.46-8.07 24.38 0 44.14 19.75 44.14 44.11 0 8.25-2.27 15.97-6.21 22.58 21.87 10.29 37 32.51 37 58.27z" fill="#f9d11f"/><g><path d="m413.84 135.72c0 35.55-28.84 64.38-64.42 64.38-26.33 0-48.97-15.79-58.96-38.42-10.84 8.39-24.44 13.38-39.21 13.38-14.47 0-27.82-4.79-38.55-12.88-8.72 21.61-29.9 36.87-54.65 36.87-31.19 0-56.72-24.24-58.75-54.9 8.14 21.5 28.93 36.78 53.28 36.78 22.187 0 41.41-12.68 50.817-31.193 2.305-4.537 7.826-6.482 12.375-4.2 7.671 3.848 16.332 6.013 25.498 6.013 12.896 0 24.793-4.283 34.34-11.506 3.511-2.656 8.313-2.99 12.103-.75 8.521 5.036 18.628 7.678 29.39 7.002 25.354-1.592 45.97-21.944 47.851-47.279 2.044-27.532-17.664-50.896-43.721-54.681-4.143-.602-7.368-3.897-8.091-8.02-3.324-18.963-19.056-33.649-38.512-35.386 2.56-.61 5.24-.93 7.99-.93 13.44 0 25.09 7.65 30.83 18.83 7.2-5.08 15.98-8.07 25.46-8.07 24.38 0 44.14 19.75 44.14 44.11 0 8.25-2.27 15.97-6.21 22.58 21.87 10.29 37 32.51 37 58.27z" fill="#ffa402"/></g><g fill="#dae1ea"><path d="m268.604 293.304h-24.207c-4.143 0-7.5 3.358-7.5 7.5s3.357 7.5 7.5 7.5h24.207c4.143 0 7.5-3.358 7.5-7.5s-3.358-7.5-7.5-7.5z"/><path d="m278.604 264.111h-44.207c-4.143 0-7.5 3.358-7.5 7.5s3.357 7.5 7.5 7.5h44.207c4.143 0 7.5-3.358 7.5-7.5s-3.358-7.5-7.5-7.5z"/></g></g></svg>